# xmcd CD database file
#
# Track frame offsets:
#	150
#	29011
#	48971
#	72997
#	105687
#	156171
#	206101
#	237593
#	255055
#	302422
#	328064
#
# Disc length: 4770 seconds
#
# Revision: 1
# Processed by: cddbd v1.5.2PL0 Copyright (c) Steve Scherf et al.
# Submitted via: CDex 1.51
#
DISCID=9512a00b
DTITLE=Morblus - On the Way Back
DYEAR=2010
DGENRE=Blues
TTITLE0=01.  Live It Up
TTITLE1=02. Don't Believe
TTITLE2=03. My Shoes
TTITLE3=04. Cissy Strut
TTITLE4=05. Stormy Monday
TTITLE5=06. Black Cat Bone
TTITLE6=07. Start It Up
TTITLE7=08. High Up in the Sky
TTITLE8=09. Ain't No Sunshine
TTITLE9=10. They Ain't Got What I Got
TTITLE10=11. Boom Boom
EXTD=YEAR: 2010
EXTT0=
EXTT1=
EXTT2=
EXTT3=
EXTT4=
EXTT5=
EXTT6=
EXTT7=
EXTT8=
EXTT9=
EXTT10=
PLAYORDER=
